<svg width="17" height="16" viewBox="0 0 17 16" fill="none" xmlns="http://www.w3.org/2000/svg">
<path d="M15.2754 5.60281C15.4347 5.60281 15.5903 5.5556 15.7227 5.46714C15.855 5.37869 15.9582 5.25298 16.0191 5.10589C16.0801 4.9588 16.096 4.79695 16.0649 4.6408C16.0339 4.48465 15.9572 4.34122 15.8446 4.22865C15.7321 4.11607 15.5886 4.0394 15.4325 4.00834C15.2763 3.97728 15.1145 3.99323 14.9674 4.05415C14.8203 4.11508 14.6946 4.21825 14.6061 4.35063C14.5177 4.483 14.4705 4.63864 14.4705 4.79784C14.4705 5.01133 14.5553 5.21608 14.7063 5.36704C14.8572 5.518 15.062 5.60281 15.2754 5.60281ZM12.8606 5.60281C13.0198 5.60281 13.1754 5.5556 13.3078 5.46714C13.4401 5.37869 13.5433 5.25298 13.6042 5.10589C13.6652 4.9588 13.6811 4.79695 13.6501 4.6408C13.619 4.48465 13.5423 4.34122 13.4297 4.22865C13.3172 4.11607 13.1737 4.0394 13.0176 4.00834C12.8614 3.97728 12.6996 3.99323 12.5525 4.05415C12.4054 4.11508 12.2797 4.21825 12.1913 4.35063C12.1028 4.483 12.0556 4.63864 12.0556 4.79784C12.0556 5.01133 12.1404 5.21608 12.2914 5.36704C12.4423 5.518 12.6471 5.60281 12.8606 5.60281ZM10.4457 5.60281C10.6049 5.60281 10.7605 5.5556 10.8929 5.46714C11.0253 5.37869 11.1284 5.25298 11.1894 5.10589C11.2503 4.9588 11.2662 4.79695 11.2352 4.6408C11.2041 4.48465 11.1274 4.34122 11.0149 4.22865C10.9023 4.11607 10.7589 4.0394 10.6027 4.00834C10.4466 3.97728 10.2847 3.99323 10.1376 4.05415C9.99053 4.11508 9.86481 4.21825 9.77636 4.35063C9.68791 4.483 9.6407 4.63864 9.6407 4.79784C9.6407 5.01133 9.72551 5.21608 9.87647 5.36704C10.0274 5.518 10.2322 5.60281 10.4457 5.60281ZM14.0197 8.82266C13.8426 8.82266 13.6575 8.76632 13.4804 8.72607C13.1217 8.64715 12.7693 8.54223 12.4259 8.41213C12.0524 8.27628 11.642 8.28333 11.2734 8.43194C10.9049 8.58055 10.6043 8.8602 10.4296 9.2171L10.2525 9.57933C9.46734 9.14112 8.74448 8.59966 8.10322 7.9694C7.47568 7.32877 6.93446 6.60895 6.49329 5.8282L6.84747 5.60281C7.20437 5.42806 7.48402 5.1275 7.63263 4.75896C7.78124 4.39041 7.78829 3.97993 7.65244 3.60649C7.52386 3.26257 7.41897 2.91024 7.3385 2.55199C7.29825 2.36685 7.26605 2.18976 7.2419 2.00462C7.14415 1.43762 6.84717 0.924147 6.40444 0.556678C5.9617 0.18921 5.40232 -0.00810908 4.82701 0.000255418H2.41212C2.07182 -0.000190346 1.73527 0.071292 1.42452 0.210016C1.11378 0.34874 0.835867 0.551574 0.609 0.80522C0.37853 1.06482 0.206738 1.37105 0.105331 1.70305C0.00392547 2.03505 -0.0247103 2.38501 0.0213761 2.72908C0.44536 6.0995 1.97935 9.23286 4.38138 11.6349C6.78341 14.0369 9.91677 15.5709 13.2872 15.9949C13.3917 16.0017 13.4966 16.0017 13.6011 15.9949C14.2416 15.9949 14.8558 15.7405 15.3087 15.2876C15.7616 14.8347 16.016 14.2205 16.016 13.58V11.1651C16.0077 10.6034 15.8037 10.0622 15.4394 9.63467C15.075 9.20712 14.573 8.91997 14.0197 8.82266ZM14.4141 13.6524C14.4155 13.7691 14.3914 13.8847 14.3436 13.9912C14.2958 14.0976 14.2255 14.1924 14.1374 14.269C14.0494 14.3456 13.9457 14.4021 13.8337 14.4346C13.7216 14.4671 13.6038 14.4749 13.4884 14.4574C10.4828 14.0652 7.69035 12.693 5.54343 10.5533C3.3982 8.39189 2.02835 5.58142 1.6474 2.56004C1.62992 2.44198 1.6389 2.32151 1.67371 2.20735C1.70851 2.09319 1.76827 1.98819 1.84864 1.89997C1.92318 1.81512 2.01473 1.7469 2.11736 1.69974C2.21999 1.65259 2.33139 1.62756 2.44432 1.62628H4.85921C5.0464 1.62212 5.22919 1.68334 5.37611 1.79941C5.52304 1.91548 5.6249 2.07913 5.66417 2.2622C5.69637 2.48223 5.73662 2.69957 5.78492 2.91423C5.87757 3.33864 6.00134 3.75567 6.1552 4.16192L5.02825 4.68515C4.9319 4.72936 4.84522 4.79216 4.77321 4.86996C4.70119 4.94776 4.64525 5.03902 4.6086 5.1385C4.57195 5.23798 4.55531 5.34371 4.55964 5.44964C4.56397 5.55556 4.58918 5.65959 4.63382 5.75575C5.7929 8.23686 7.78746 10.2314 10.2686 11.3905C10.4645 11.471 10.6844 11.471 10.8803 11.3905C11.0801 11.3162 11.2422 11.1656 11.3311 10.9719L11.8383 9.84497C12.2546 9.99323 12.6793 10.1169 13.1101 10.2153C13.3194 10.2635 13.5448 10.3038 13.7621 10.336C13.9437 10.3769 14.1055 10.4794 14.22 10.6262C14.3345 10.773 14.3945 10.9549 14.39 11.141L14.4141 13.6524Z" fill="#063434"/>
</svg>
